<svg id="Calque_1" data-name="Calque 1" xmlns="http://www.w3.org/2000/svg" viewBox="0 0 542.72 133.06"><polygon points="132.92 0 81.3 51.79 73.27 59.85 56.52 76.66 43.58 89.64 0.3 133.06 0 133.06 0 68.67 12.59 56.03 16.81 51.79 42.27 26.25 68.43 0 132.92 0" style="fill:#fff"/><polygon points="51.26 0 34.02 17.3 4.34 47.08 0 51.44 0 0 51.26 0" style="fill:#fff"/><polygon points="140.76 133.06 83.61 133.06 51.84 98.6 73.69 76.66 81.52 68.81 88.76 76.66 113.84 103.87 140.76 133.06" style="fill:#fff"/><path d="M187.25,50.7,183.44,55V67.4H166.73V17h16.71V35.29L200,17h18.5L198.34,39.18,219.51,67.4H199.86Z" transform="translate(0 0)" style="fill:#fff"/><path d="M218.79,40.47h21.6V52.71h-21.6Z" transform="translate(0 0)" style="fill:#fff"/><path d="M290.36,54.58V67.4H248.45V17h41V29.82H265.16v5.9h21.31V48H265.16v6.62Z" transform="translate(0 0)" style="fill:#fff"/><path d="M342.63,67.4l-.14-23L331.54,62.83h-7.49l-10.94-17.6V67.4H297.63V17h14L328,43.86,344,17h14l.14,50.4Z" transform="translate(0 0)" style="fill:#fff"/><path d="M403.47,19.31a17.9,17.9,0,0,1,8,6.62,19.47,19.47,0,0,1,0,20.16,17.9,17.9,0,0,1-8,6.62A29.71,29.71,0,0,1,391.3,55H384V67.4H367V17h24.26A29.56,29.56,0,0,1,403.47,19.31Zm-8.06,21a6.38,6.38,0,0,0,0-8.71,7.62,7.62,0,0,0-5.19-1.54H384v11.8h6.19a7.55,7.55,0,0,0,5.19-1.5Z" transform="translate(0 0)" style="fill:#fff"/><path d="M420.53,17h17V67.4h-17Z" transform="translate(0 0)" style="fill:#fff"/><path d="M468.05,54.73h-4.6V67.4h-17V17h24.27a29.75,29.75,0,0,1,12.14,2.31A17.41,17.41,0,0,1,493.67,36a17.83,17.83,0,0,1-2.45,9.43,17.19,17.19,0,0,1-7.06,6.41L494.75,67.4H476.62Zm6.81-23.08a7.59,7.59,0,0,0-5.18-1.54h-6.19v11.8h6.19a7.55,7.55,0,0,0,5.18-1.55A6.36,6.36,0,0,0,474.86,31.65Z" transform="translate(0 0)" style="fill:#fff"/><path d="M542.72,54.58V67.4H500.86V17h41V29.82H517.52v5.9h21.34V48H517.52v6.62Z" transform="translate(0 0)" style="fill:#fff"/><path d="M173,113.87a16.36,16.36,0,0,1-6.46-6.08,17.82,17.82,0,0,1,0-17.68A16.37,16.37,0,0,1,173,84a19.43,19.43,0,0,1,9.28-2.19,20.1,20.1,0,0,1,8.13,1.6,15.52,15.52,0,0,1,6,4.61l-5.92,5.36a9.73,9.73,0,0,0-7.76-3.86A9.57,9.57,0,0,0,178,90.73,8.22,8.22,0,0,0,174.76,94a11.08,11.08,0,0,0,0,9.82,8.22,8.22,0,0,0,3.24,3.32,9.58,9.58,0,0,0,4.77,1.17,9.72,9.72,0,0,0,7.76-3.85l5.92,5.36a15.6,15.6,0,0,1-6,4.6,19.77,19.77,0,0,1-8.13,1.6A19.46,19.46,0,0,1,173,113.87Z" transform="translate(0 0)" style="fill:#fff"/><path d="M207.59,113.85a16.82,16.82,0,0,1,0-29.8,21,21,0,0,1,18.75,0,16.83,16.83,0,0,1,0,29.8A21,21,0,0,1,207.59,113.85Zm13.88-6.67a8.51,8.51,0,0,0,3.2-3.32,10.89,10.89,0,0,0,0-9.82,8.35,8.35,0,0,0-3.2-3.31,9.19,9.19,0,0,0-9,0,8.48,8.48,0,0,0-3.2,3.31,10.89,10.89,0,0,0,0,9.82,8.51,8.51,0,0,0,3.2,3.32A9.29,9.29,0,0,0,221.47,107.18Z" transform="translate(0 0)" style="fill:#fff"/><path d="M255,106.66h-5.08v8.74H240.6V82.53h15A18.78,18.78,0,0,1,263.36,84,12,12,0,0,1,269,100a10.28,10.28,0,0,1-.49.93,11.25,11.25,0,0,1-4.77,4.16l7.1,10.34h-10Zm4.4-15.56a6.43,6.43,0,0,0-4.32-1.27h-5.17v9.64h5.17a6.5,6.5,0,0,0,4.32-1.25,4.43,4.43,0,0,0,1.46-3.55A4.5,4.5,0,0,0,259.4,91.1Z" transform="translate(0 0)" style="fill:#fff"/><path d="M298.65,84a11.61,11.61,0,0,1,0,21.34,18.79,18.79,0,0,1-7.76,1.48h-5.73v8.6h-9.3V82.53h15A18.76,18.76,0,0,1,298.65,84Zm-4,14.24a4.43,4.43,0,0,0,1.46-3.55,4.5,4.5,0,0,0-1.46-3.57,6.43,6.43,0,0,0-4.32-1.27h-5.17v9.64h5.17a6.43,6.43,0,0,0,4.32-1.27Z" transform="translate(0 0)" style="fill:#fff"/><path d="M318.18,113.85a16.82,16.82,0,0,1,0-29.8,21,21,0,0,1,18.75,0,16.83,16.83,0,0,1,0,29.8A21,21,0,0,1,318.18,113.85Zm13.88-6.67a8.51,8.51,0,0,0,3.2-3.32,10.83,10.83,0,0,0,0-9.82,8.35,8.35,0,0,0-3.2-3.31,9.19,9.19,0,0,0-9,0,8.48,8.48,0,0,0-3.2,3.31,10.89,10.89,0,0,0,0,9.82,8.51,8.51,0,0,0,3.2,3.32A9.29,9.29,0,0,0,332.06,107.18Z" transform="translate(0 0)" style="fill:#fff"/><path d="M365.57,106.66H360.5v8.74h-9.31V82.53h15A18.85,18.85,0,0,1,374,84a12,12,0,0,1,5.68,16h0a10.28,10.28,0,0,1-.49.93,11.25,11.25,0,0,1-4.77,4.16l7.1,10.34h-10ZM370,91.1a6.43,6.43,0,0,0-4.32-1.27H360.5v9.64h5.17A6.51,6.51,0,0,0,370,98.22a4.43,4.43,0,0,0,1.46-3.55A4.5,4.5,0,0,0,370,91.1Z" transform="translate(0 0)" style="fill:#fff"/><path d="M408.49,109H394.57L392,115.4h-9.5L397,82.53h9.16l14.57,32.9h-9.68Zm-2.73-6.86-4.23-10.53-4.23,10.53Z" transform="translate(0 0)" style="fill:#fff"/><path d="M429.21,89.88h-10.1V82.53h29.47v7.38H438.52v25.52h-9.31Z" transform="translate(0 0)" style="fill:#fff"/><path d="M452.53,82.53h9.33v32.9h-9.3Z" transform="translate(0 0)" style="fill:#fff"/><path d="M476.14,113.85a16.83,16.83,0,0,1,0-29.8,21,21,0,0,1,18.76,0,16.83,16.83,0,0,1,0,29.8A21,21,0,0,1,476.14,113.85ZM490,107.18a8.51,8.51,0,0,0,3.2-3.32,10.89,10.89,0,0,0,0-9.82,8.48,8.48,0,0,0-3.2-3.31,9.19,9.19,0,0,0-9,0A8.35,8.35,0,0,0,477.8,94a10.89,10.89,0,0,0,0,9.82,8.51,8.51,0,0,0,3.2,3.32A9.29,9.29,0,0,0,490,107.18Z" transform="translate(0 0)" style="fill:#fff"/><path d="M540.46,82.53v32.9H532.8L518.28,97.9v17.53h-9.12V82.53h7.7l14.52,17.53V82.53Z" transform="translate(0 0)" style="fill:#fff"/></svg>