<svg id="Calque_1" data-name="Calque 1" xmlns="http://www.w3.org/2000/svg" viewBox="0 0 542.71 133.06"><polygon points="132.92 0 81.3 51.79 73.27 59.85 56.52 76.66 43.58 89.64 0.3 133.06 0 133.06 0 68.67 12.59 56.03 16.81 51.79 42.27 26.25 68.43 0 132.92 0" style="fill:#0b4064"/><polygon points="51.26 0 34.02 17.3 4.34 47.08 0 51.44 0 0 51.26 0" style="fill:#e5a71f"/><polygon points="140.76 133.06 83.61 133.06 51.84 98.6 73.69 76.66 81.52 68.81 88.76 76.66 113.84 103.87 140.76 133.06" style="fill:#e5a71f"/><path d="M336.39,282.17l-3.81,4.25v12.45H315.87v-50.4h16.71v18.29l16.56-18.29h18.5l-20.16,22.18,21.17,28.22H349Z" transform="translate(-149.14 -231.47)" style="fill:#1d1d1b"/><path d="M367.93,271.94h21.6v12.24h-21.6Z" transform="translate(-149.14 -231.47)" style="fill:#1d1d1b"/><path d="M439.5,286.05v12.82H397.59v-50.4h41v12.82H414.3v5.9h21.31v12.24H414.3v6.62Z" transform="translate(-149.14 -231.47)" style="fill:#1d1d1b"/><path d="M491.77,298.87l-.14-23-10.95,18.43h-7.49L462.25,276.7v22.17H446.77v-50.4h14l16.41,26.86,16-26.86h14l.14,50.4Z" transform="translate(-149.14 -231.47)" style="fill:#1d1d1b"/><path d="M552.61,250.78a17.85,17.85,0,0,1,8,6.62,19.48,19.48,0,0,1,0,20.16,17.85,17.85,0,0,1-8,6.62,29.69,29.69,0,0,1-12.17,2.31h-7.27v12.38h-17v-50.4h24.26A29.69,29.69,0,0,1,552.61,250.78Zm-8.06,21a6.37,6.37,0,0,0,0-8.71,7.59,7.59,0,0,0-5.19-1.54h-6.19v11.8h6.19A7.54,7.54,0,0,0,544.55,271.83Z" transform="translate(-149.14 -231.47)" style="fill:#1d1d1b"/><path d="M569.67,248.47h17v50.4h-17Z" transform="translate(-149.14 -231.47)" style="fill:#1d1d1b"/><path d="M617.19,286.2h-4.6v12.67h-17v-50.4h24.27A29.73,29.73,0,0,1,632,250.78a17.9,17.9,0,0,1,8,6.62,18.1,18.1,0,0,1,2.81,10.08,17.83,17.83,0,0,1-2.45,9.43,17.26,17.26,0,0,1-7.06,6.41l10.59,15.55H625.76ZM624,263.12a7.56,7.56,0,0,0-5.18-1.54h-6.19v11.8h6.19a7.51,7.51,0,0,0,5.18-1.55,6.35,6.35,0,0,0,0-8.71Z" transform="translate(-149.14 -231.47)" style="fill:#1d1d1b"/><path d="M691.86,286.05v12.82H650v-50.4h41v12.82H666.66v5.9H688v12.24H666.66v6.62Z" transform="translate(-149.14 -231.47)" style="fill:#1d1d1b"/><path d="M322.18,345.34a16.31,16.31,0,0,1-6.46-6.08,17.8,17.8,0,0,1,0-17.68,16.38,16.38,0,0,1,6.46-6.08,19.44,19.44,0,0,1,9.28-2.19,20,20,0,0,1,8.13,1.6,15.63,15.63,0,0,1,6,4.61l-5.92,5.36a9.75,9.75,0,0,0-7.76-3.86,9.53,9.53,0,0,0-4.77,1.18,8.13,8.13,0,0,0-3.24,3.31,11.06,11.06,0,0,0,0,9.82,8.22,8.22,0,0,0,3.24,3.32,9.63,9.63,0,0,0,4.77,1.17,9.74,9.74,0,0,0,7.76-3.85l5.92,5.36a15.6,15.6,0,0,1-6,4.6,19.83,19.83,0,0,1-8.13,1.6A19.44,19.44,0,0,1,322.18,345.34Z" transform="translate(-149.14 -231.47)" style="fill:#1d1d1b"/><path d="M356.73,345.32a16.82,16.82,0,0,1,0-29.8,21,21,0,0,1,18.75,0,16.83,16.83,0,0,1,0,29.8,21,21,0,0,1-18.75,0Zm13.88-6.67a8.45,8.45,0,0,0,3.2-3.32,10.89,10.89,0,0,0,0-9.82,8.36,8.36,0,0,0-3.2-3.31,9.21,9.21,0,0,0-9,0,8.43,8.43,0,0,0-3.2,3.31,10.89,10.89,0,0,0,0,9.82,8.52,8.52,0,0,0,3.2,3.32,9.28,9.28,0,0,0,9,0Z" transform="translate(-149.14 -231.47)" style="fill:#1d1d1b"/><path d="M404.13,338.13h-5.08v8.74h-9.31V314h15a18.75,18.75,0,0,1,7.76,1.48,12,12,0,0,1,5.19,16.92,11.24,11.24,0,0,1-4.77,4.16l7.1,10.34h-10Zm4.41-15.56a6.44,6.44,0,0,0-4.32-1.27h-5.17v9.64h5.17a6.49,6.49,0,0,0,4.32-1.25,4.41,4.41,0,0,0,1.46-3.55A4.5,4.5,0,0,0,408.54,322.57Z" transform="translate(-149.14 -231.47)" style="fill:#1d1d1b"/><path d="M447.79,315.45a11.61,11.61,0,0,1,0,21.34,18.75,18.75,0,0,1-7.76,1.48H434.3v8.6H425V314h15A18.75,18.75,0,0,1,447.79,315.45Zm-4,14.24a4.41,4.41,0,0,0,1.46-3.55,4.5,4.5,0,0,0-1.46-3.57,6.44,6.44,0,0,0-4.32-1.27H434.3v9.64h5.17A6.49,6.49,0,0,0,443.79,329.69Z" transform="translate(-149.14 -231.47)" style="fill:#1d1d1b"/><path d="M467.32,345.32a16.82,16.82,0,0,1,0-29.8,21,21,0,0,1,18.75,0,16.83,16.83,0,0,1,0,29.8,21,21,0,0,1-18.75,0Zm13.88-6.67a8.45,8.45,0,0,0,3.2-3.32,10.81,10.81,0,0,0,0-9.82,8.36,8.36,0,0,0-3.2-3.31,9.21,9.21,0,0,0-9,0,8.43,8.43,0,0,0-3.2,3.31,10.89,10.89,0,0,0,0,9.82,8.52,8.52,0,0,0,3.2,3.32,9.28,9.28,0,0,0,9,0Z" transform="translate(-149.14 -231.47)" style="fill:#1d1d1b"/><path d="M514.71,338.13h-5.07v8.74h-9.31V314h15a18.75,18.75,0,0,1,7.76,1.48,12,12,0,0,1,5.19,16.92,11.24,11.24,0,0,1-4.77,4.16l7.1,10.34h-10Zm4.42-15.56a6.44,6.44,0,0,0-4.32-1.27h-5.17v9.64h5.17a6.49,6.49,0,0,0,4.32-1.25,4.41,4.41,0,0,0,1.46-3.55A4.5,4.5,0,0,0,519.13,322.57Z" transform="translate(-149.14 -231.47)" style="fill:#1d1d1b"/><path d="M557.63,340.48H543.71l-2.58,6.39h-9.5L546.16,314h9.16l14.57,32.9h-9.68Zm-2.73-6.86-4.23-10.53-4.23,10.53Z" transform="translate(-149.14 -231.47)" style="fill:#1d1d1b"/><path d="M578.35,321.35h-10.1V314h29.47v7.38H587.66v25.52h-9.31Z" transform="translate(-149.14 -231.47)" style="fill:#1d1d1b"/><path d="M601.67,314H611v32.9h-9.3Z" transform="translate(-149.14 -231.47)" style="fill:#1d1d1b"/><path d="M625.28,345.32a16.83,16.83,0,0,1,0-29.8,21,21,0,0,1,18.76,0,16.83,16.83,0,0,1,0,29.8,21,21,0,0,1-18.76,0Zm13.89-6.67a8.52,8.52,0,0,0,3.2-3.32,10.89,10.89,0,0,0,0-9.82,8.43,8.43,0,0,0-3.2-3.31,9.21,9.21,0,0,0-9,0,8.36,8.36,0,0,0-3.2,3.31,10.89,10.89,0,0,0,0,9.82,8.45,8.45,0,0,0,3.2,3.32,9.28,9.28,0,0,0,9,0Z" transform="translate(-149.14 -231.47)" style="fill:#1d1d1b"/><path d="M689.6,314v32.9h-7.66l-14.52-17.53v17.53H658.3V314H666l14.52,17.53V314Z" transform="translate(-149.14 -231.47)" style="fill:#1d1d1b"/></svg>